<?xml version="1.0" encoding="UTF-8"?>
<svg version="1.1" viewBox="0 0 128 128" xmlns="http://www.w3.org/2000/svg" xmlns:xlink="http://www.w3.org/1999/xlink">
<defs>
<rect id="c" x=".63348" width="82.454" height="18"/>
<path id="a" d="m10.523 54.594c-6.9978 0.5045-10.497-2.9955-10.497-10.5v-7.3437-15.75c-0.51117-14 6.4867-21 20.993-21h41.987c13.996 0.29258 20.993 7.2926 20.993 21v23.094c0 7.0001-3.4989 10.5-10.497 10.5h-62.98zm47.077-38.68v16.255h16.036v-16.255h-16.036zm0 21.818v8.8364h16.036v-8.8364h-16.036zm-18.6-13.636l-11.945 22.364h23.891l-11.945-22.364zm1.8-8.1818l11.345 21.927v-21.927h-11.345zm-20.4 20.618c6.4467 0 11.673-5.2261 11.673-11.673 0-6.4467-5.2261-11.673-11.673-11.673s-11.673 5.2261-11.673 11.673c0 6.4467 5.2261 11.673 11.673 11.673zm-11.223 4.1451v5.8172h12.715l3.0832-5.8172h-15.798z"/>
</defs>
<g fill="none" fill-rule="evenodd">
<g transform="translate(21 23)">
<g transform="translate(.94727)" fill="#8F929F" fill-rule="nonzero">
<mask id="b" fill="white">
<use xlink:href="#c"/>
</mask>
<rect x="34.703" width="17.01" height="2.9674" mask="url(#b)"/>
<polygon points="39.442 0 10.336 58.356 0.63348 58.356 29.74 0" mask="url(#b)"/>
</g>
<g transform="translate(1 16.813)">
<mask fill="white">
<use xlink:href="#a"/>
</mask>
<use fill="#8F929F" fill-rule="nonzero" xlink:href="#a"/>
</g>
<polyline points="46.597 2.8315 54.615 19.008 64.673 19.008 56.526 2.8315 55.244 0.14404 45.888 0.14404" fill="#8F929F" fill-rule="nonzero"/>
</g>
</g>
</svg>